<svg xmlns="http://www.w3.org/2000/svg" version="1.1" xmlns:xlink="http://www.w3.org/1999/xlink" xmlns:svgjs="http://svgjs.dev/svgjs" width="1000" height="267" viewBox="0 0 1000 267"><g transform="matrix(1,0,0,1,-0.6060453140575532,-0.3139555937763703)"><svg viewBox="0 0 396 106" data-background-color="#dedede" preserveAspectRatio="xMidYMid meet" height="267" width="1000" xmlns="http://www.w3.org/2000/svg" xmlns:xlink="http://www.w3.org/1999/xlink"><g id="tight-bounds" transform="matrix(1,0,0,1,0.23999394436680177,0.12464229573220109)"><svg viewBox="0 0 395.52 105.75071527154358" height="105.75071527154358" width="395.52"><g><svg viewBox="0 0 395.52 105.75071527154358" height="105.75071527154358" width="395.52"><g><svg viewBox="0 0 395.52 105.75071527154358" height="105.75071527154358" width="395.52"><g><svg viewBox="0 0 395.52 105.75071527154358" height="105.75071527154358" width="395.52"><g><svg viewBox="0 0 395.52 65.28077575757575" height="65.28077575757575" width="395.52"><g transform="matrix(1,0,0,1,0,0)"><svg width="395.52" viewBox="3.0799999237060547 -38.22999954223633 241.67999267578125 39.88999938964844" height="65.28077575757575" data-palette-color="#000000"><path d="M3.08-16.5L3.08-16.5Q3.08-19.19 3.72-21.67 4.37-24.15 5.57-26.29 6.76-28.44 8.46-30.2 10.16-31.96 12.26-33.22 14.36-34.47 16.81-35.16 19.26-35.84 21.97-35.84L21.97-35.84Q24.12-35.84 25.74-35.56 27.37-35.28 28.58-34.85 29.79-34.42 30.6-33.91 31.42-33.4 31.96-32.93L31.96-32.93Q31.93-32.93 31.93-32.76L31.93-32.76Q31.93-32.4 31.99-31.42 32.06-30.44 32.14-29.25 32.23-28.05 32.29-26.82 32.35-25.59 32.35-24.68L32.35-24.68Q32.35-24.54 32.25-24.35 32.15-24.17 31.76-24.17L31.76-24.17Q31.54-24.17 31.23-24.24L31.23-24.24Q30.71-24.39 29.93-24.91 29.15-25.44 28.11-26.01 27.08-26.59 25.79-27.04 24.51-27.49 23-27.49L23-27.49Q21-27.49 19.36-26.7 17.72-25.9 16.58-24.51 15.43-23.12 14.79-21.2 14.16-19.29 14.16-17.02L14.16-17.02Q14.16-15.01 14.6-13.2 15.04-11.38 15.93-10.01 16.82-8.64 18.15-7.82 19.48-7.01 21.24-7.01L21.24-7.01Q22.63-7.01 23.71-7.1 24.78-7.2 25.71-7.42 26.64-7.64 27.53-8.01 28.42-8.37 29.44-8.94L29.44-8.94Q29.49-8.96 29.69-8.96L29.69-8.96Q29.86-8.96 29.92-8.83 29.98-8.69 29.98-8.28L29.98-8.28 29.98-5.35Q29.98-4.54 29.97-3.77 29.96-3 29.94-2.39 29.93-1.78 29.92-1.4 29.91-1.03 29.88-1.03L29.88-1.03Q28.76-0.32 27.48 0.13 26.2 0.59 24.84 0.84 23.49 1.1 22.12 1.18 20.75 1.27 19.48 1.27L19.48 1.27Q16.04 1.27 13.04-0.04 10.03-1.34 7.82-3.69 5.62-6.03 4.35-9.3 3.08-12.57 3.08-16.5ZM44.87-16.65L44.87-16.65Q44.87-14.89 45.25-13.12 45.63-11.35 46.51-9.94 47.39-8.52 48.83-7.64 50.27-6.76 52.39-6.76L52.39-6.76Q54.03-6.86 55.26-7.43 56.49-8.01 57.38-8.92 58.27-9.84 58.86-11.02 59.45-12.21 59.79-13.51 60.13-14.82 60.26-16.19 60.4-17.55 60.4-18.82L60.4-18.82Q60.4-20.56 59.93-22.18 59.47-23.8 58.54-25.05 57.61-26.29 56.24-27.05 54.86-27.81 53.02-27.81L53.02-27.81Q51.58-27.81 50.42-27.27 49.27-26.73 48.36-25.84 47.46-24.95 46.81-23.79 46.16-22.63 45.74-21.4 45.31-20.17 45.1-18.93 44.89-17.7 44.87-16.65ZM49.63 1.27L49.63 1.27Q45.97 1.27 43.09-0.1 40.21-1.46 38.22-3.8 36.23-6.13 35.17-9.19 34.1-12.26 34.1-15.67L34.1-15.67Q34.1-19.51 35.19-22.74 36.28-25.98 38.23-28.48 40.18-30.98 42.88-32.7 45.58-34.42 48.8-35.25L48.8-35.25Q49.09-35.25 49.25-35.72 49.41-36.18 49.53-36.74 49.66-37.3 49.83-37.77 50-38.23 50.31-38.23L50.31-38.23Q55.05-37.74 58.84-36.56 62.62-35.38 65.26-33.18 67.89-30.98 69.3-27.62 70.7-24.27 70.7-19.43L70.7-19.43Q70.7-16.33 69.94-13.6 69.19-10.86 67.82-8.56 66.45-6.25 64.54-4.43 62.62-2.61 60.28-1.34 57.93-0.07 55.23 0.6 52.54 1.27 49.63 1.27ZM78.49 1.27L74.04 1.27Q73.77 1.22 73.65 1 73.53 0.78 73.53 0.51L73.53 0.51Q73.53 0.29 73.63 0.12L73.63 0.12 76.63-5.62Q76.66-5.71 76.72-6.37 76.78-7.03 76.85-8.02 76.92-9.01 77.01-10.23 77.09-11.45 77.19-12.65 77.29-13.84 77.38-14.93 77.46-16.02 77.53-16.75L77.53-16.75Q77.56-17.04 77.61-17.64 77.66-18.24 77.7-19.02 77.75-19.8 77.83-20.7 77.9-21.61 77.97-22.51L77.97-22.51 78.32-27.61Q77.66-27.47 76.95-27.31 76.24-27.15 75.57-27.03 74.9-26.9 74.3-26.82 73.7-26.73 73.26-26.73L73.26-26.73Q72.99-26.73 72.86-26.98 72.72-27.22 72.72-27.49L72.72-27.49Q72.72-27.81 72.87-27.95L72.87-27.95 79.07-33.74Q79.83-34.42 80.57-34.85 81.32-35.28 82.37-35.52 83.42-35.77 84.94-35.85 86.47-35.94 88.81-35.94L88.81-35.94Q92.82-35.94 95.92-35.11 99.02-34.28 101.17-32.74L101.17-32.74Q102.75-31.64 104-30.44 105.24-29.25 106.1-27.8 106.95-26.34 107.39-24.6 107.83-22.85 107.83-20.65L107.83-20.65Q107.83-16.48 106.59-13.23 105.34-9.99 103.19-7.56 101.04-5.13 98.18-3.44 95.31-1.76 92.05-0.71 88.79 0.34 85.31 0.81 81.83 1.27 78.49 1.27L78.49 1.27ZM88.23-28.13L88.23-28.13 87.93-25.17Q87.79-23.63 87.63-21.89 87.47-20.14 87.32-18.35 87.18-16.55 87.03-14.81 86.88-13.06 86.76-11.55 86.64-10.03 86.54-8.84 86.45-7.64 86.37-6.93L86.37-6.93 86.3-6.2Q89.25-6.2 91.29-7.15 93.33-8.11 94.6-9.78 95.87-11.45 96.44-13.7 97.02-15.94 97.02-18.53L97.02-18.53Q97.02-20.39 96.5-22.11 95.99-23.83 95.01-25.39L95.01-25.39Q94.04-26.95 92.62-27.73 91.21-28.52 89.42-28.52L89.42-28.52Q89.13-28.52 88.79-28.38 88.45-28.25 88.23-28.13ZM132.54-20.26L132.54-20.26Q132.44-19.92 132.17-19.3 131.9-18.68 131.55-17.9 131.19-17.11 130.79-16.22 130.39-15.33 130-14.43L130-14.43Q129.85-14.09 129.73-13.93 129.61-13.77 129.34-13.7 129.07-13.62 128.59-13.61 128.12-13.6 127.26-13.57L127.26-13.57 123.87-13.5 123.19-6.03 135.71-6.03 135.71-5.08Q135.66-5.03 135.3-4.43 134.93-3.83 134.44-3 133.95-2.17 133.42-1.33 132.88-0.49 132.51 0.02L132.51 0.02Q132.27 0.46 131.95 0.72 131.63 0.98 131.25 1.1 130.88 1.22 130.42 1.25 129.97 1.27 129.44 1.27L129.44 1.27Q127.24 1.27 124.86 1.17 122.48 1.07 120.11 0.93 117.74 0.78 115.48 0.6 113.22 0.42 111.3 0.22L111.3 0.22Q111.13 0.2 110.99 0.02 110.86-0.15 110.86-0.37L110.86-0.37Q110.76-0.37 110.99-0.78 111.22-1.2 111.64-1.86 112.05-2.51 112.55-3.36 113.05-4.2 113.52-5.05L113.52-5.05 113.91-10.55Q114.01-11.94 114.07-12.62 114.13-13.31 114.13-13.35L114.13-13.35Q112.66-13.38 111.94-13.5 111.22-13.62 111.22-14.04L111.22-14.04Q111.22-14.23 111.58-14.77 111.93-15.31 112.44-16 112.96-16.7 113.53-17.46 114.1-18.21 114.54-18.85L114.54-18.85 115.15-27.15 115.08-27.15Q114.54-27.12 114.1-27.11 113.66-27.1 113.3-27.1L113.3-27.1Q112.13-27.1 111.63-27.23 111.13-27.37 111.13-27.73L111.13-27.73Q111.13-27.91 111.42-28.44 111.71-28.98 112.15-29.68 112.59-30.37 113.08-31.14 113.57-31.91 113.96-32.57L113.96-32.57 115.42-35.06 125.63-35.06 137.66-35.94Q137.69-35.94 137.8-35.93 137.91-35.91 138.03-35.85 138.15-35.79 138.26-35.64 138.37-35.5 138.37-35.23L138.37-35.23 138.01-33.96Q137.83-33.42 137.59-32.82 137.35-32.23 137.05-31.59L137.05-31.59 135.98-28.76Q135.81-28.34 135.59-28.13 135.37-27.91 134.66-27.88L134.66-27.88Q132.81-27.83 130.52-27.72 128.24-27.61 125.29-27.51L125.29-27.51Q125.19-27.17 125.19-26.97 125.19-26.76 125.14-26.17L125.14-26.17 125.02-25.05Q124.97-24.27 124.87-23.36 124.77-22.46 124.63-21.14L124.63-21.14Q125.87-21.19 127.06-21.24 128.24-21.29 129.22-21.33 130.19-21.36 130.91-21.39 131.63-21.41 131.93-21.41L131.93-21.41Q132.12-21.41 132.37-21.26 132.61-21.12 132.61-20.7L132.61-20.7Q132.61-20.51 132.54-20.26ZM169.37-17.5L174.18-33.13Q174.31-33.57 174.45-33.85 174.6-34.13 175.11-34.25L175.11-34.25 182.31-35.91Q182.36-35.91 182.44-35.94 182.51-35.96 182.56-35.96L182.56-35.96Q182.9-35.96 183.03-35.67 183.17-35.38 183.17-35.11L183.17-35.11Q183.17-35.06 183.16-34.91 183.14-34.77 183.12-34.72L183.12-34.72 173.01-4Q172.62-3 172.37-2.38 172.11-1.76 171.85-1.35 171.6-0.95 171.27-0.68 170.94-0.42 170.39-0.15 169.84 0.12 169.01 0.48 168.18 0.83 166.91 1.44L166.91 1.44Q166.47 1.66 166.23 1.66L166.23 1.66Q165.83 1.66 165.64 1.37 165.44 1.07 165.32 0.71L165.32 0.71 161.15-14.16 155.92-3.39Q155.8-3.1 155.36-2.61 154.92-2.12 154.37-1.61 153.82-1.1 153.27-0.62 152.72-0.15 152.38 0.15L152.38 0.15Q152.07 0.42 151.71 0.68 151.36 0.95 150.99 1.17 150.62 1.39 150.3 1.53 149.97 1.66 149.67 1.66L149.67 1.66Q149.04 1.66 148.84 0.95L148.84 0.95 139.37-32.45Q139.32-32.64 139.26-32.84 139.2-33.03 139.2-33.2L139.2-33.2Q139.2-33.81 139.49-34.23 139.78-34.64 140.52-34.94 141.25-35.23 142.47-35.41 143.69-35.6 145.57-35.72L145.57-35.72Q146.45-35.84 147.05-35.89 147.65-35.94 148.06-35.94L148.06-35.94Q148.77-35.94 148.99-35.72 149.21-35.5 149.38-34.99L149.38-34.99 154.41-15.63 158.58-22.8 156.9-30.15Q156.75-30.74 156.78-31.03L156.78-31.03Q156.78-31.59 157.07-31.93 157.36-32.28 158.05-32.5 158.73-32.71 159.84-32.89 160.95-33.06 162.56-33.28L162.56-33.28Q163.27-33.37 163.78-33.42 164.3-33.47 164.66-33.47L164.66-33.47Q165.4-33.47 165.66-33.25 165.93-33.03 166.05-32.54L166.05-32.54 169.37-17.5ZM206.02-20.26L206.02-20.26Q205.92-19.92 205.65-19.3 205.38-18.68 205.03-17.9 204.68-17.11 204.27-16.22 203.87-15.33 203.48-14.43L203.48-14.43Q203.33-14.09 203.21-13.93 203.09-13.77 202.82-13.7 202.55-13.62 202.07-13.61 201.6-13.6 200.74-13.57L200.74-13.57 197.35-13.5 196.67-6.03 209.19-6.03 209.19-5.08Q209.14-5.03 208.78-4.43 208.41-3.83 207.92-3 207.43-2.17 206.9-1.33 206.36-0.49 205.99 0.02L205.99 0.02Q205.75 0.46 205.43 0.72 205.11 0.98 204.74 1.1 204.36 1.22 203.91 1.25 203.45 1.27 202.92 1.27L202.92 1.27Q200.72 1.27 198.34 1.17 195.96 1.07 193.59 0.93 191.22 0.78 188.96 0.6 186.71 0.42 184.78 0.22L184.78 0.22Q184.61 0.2 184.47 0.02 184.34-0.15 184.34-0.37L184.34-0.37Q184.24-0.37 184.47-0.78 184.7-1.2 185.12-1.86 185.53-2.51 186.03-3.36 186.54-4.2 187-5.05L187-5.05 187.39-10.55Q187.49-11.94 187.55-12.62 187.61-13.31 187.61-13.35L187.61-13.35Q186.14-13.38 185.42-13.5 184.7-13.62 184.7-14.04L184.7-14.04Q184.7-14.23 185.06-14.77 185.41-15.31 185.93-16 186.44-16.7 187.01-17.46 187.59-18.21 188.02-18.85L188.02-18.85 188.63-27.15 188.56-27.15Q188.02-27.12 187.59-27.11 187.15-27.1 186.78-27.1L186.78-27.1Q185.61-27.1 185.11-27.23 184.61-27.37 184.61-27.73L184.61-27.73Q184.61-27.91 184.9-28.44 185.19-28.98 185.63-29.68 186.07-30.37 186.56-31.14 187.05-31.91 187.44-32.57L187.44-32.57 188.9-35.06 199.11-35.06 211.14-35.94Q211.17-35.94 211.28-35.93 211.39-35.91 211.51-35.85 211.63-35.79 211.74-35.64 211.85-35.5 211.85-35.23L211.85-35.23 211.49-33.96Q211.32-33.42 211.07-32.82 210.83-32.23 210.53-31.59L210.53-31.59 209.46-28.76Q209.29-28.34 209.07-28.13 208.85-27.91 208.14-27.88L208.14-27.88Q206.29-27.83 204-27.72 201.72-27.61 198.77-27.51L198.77-27.51Q198.67-27.17 198.67-26.97 198.67-26.76 198.62-26.17L198.62-26.17 198.5-25.05Q198.45-24.27 198.35-23.36 198.25-22.46 198.11-21.14L198.11-21.14Q199.35-21.19 200.54-21.24 201.72-21.29 202.7-21.33 203.67-21.36 204.39-21.39 205.11-21.41 205.41-21.41L205.41-21.41Q205.6-21.41 205.85-21.26 206.09-21.12 206.09-20.7L206.09-20.7Q206.09-20.51 206.02-20.26ZM215.98-0.32L215.98-0.32Q215.49-0.44 215.32-0.7 215.15-0.95 215.15-1.27L215.15-1.27Q215.15-1.34 215.16-1.37 215.17-1.39 215.17-1.46L215.17-1.46Q215.37-4.1 215.6-6.99 215.83-9.89 216.1-12.88 216.37-15.87 216.64-18.85 216.9-21.83 217.17-24.63L217.17-24.63 217.15-24.63Q217.05-24.63 216.6-24.48 216.15-24.32 215.57-24.13 215-23.95 214.41-23.8 213.83-23.66 213.46-23.66L213.46-23.66Q213.14-23.66 213.01-23.9 212.88-24.15 212.88-24.44L212.88-24.44Q212.88-24.66 212.95-24.85L212.95-24.85Q213.61-26.76 214.32-28.42 215.02-30.08 215.73-31.84L215.73-31.84Q217.59-32.84 219.59-33.58 221.59-34.33 223.63-34.83 225.67-35.33 227.69-35.58 229.72-35.84 231.63-35.84L231.63-35.84Q234.29-35.84 236.64-35.28 239-34.72 240.74-33.58 242.49-32.45 243.5-30.73 244.52-29 244.52-26.68L244.52-26.68Q244.52-25.68 244.08-24.76 243.64-23.83 242.94-22.99 242.25-22.14 241.39-21.42 240.54-20.7 239.71-20.12L239.71-20.12Q240.88-19.26 241.82-18.57 242.76-17.87 243.42-17.11 244.08-16.36 244.42-15.42 244.76-14.48 244.76-13.13L244.76-13.13Q244.76-11.08 244.04-9.22 243.32-7.35 242.06-5.75 240.81-4.15 239.08-2.86 237.36-1.56 235.35-0.65 233.33 0.27 231.1 0.77 228.87 1.27 226.6 1.27L226.6 1.27Q225.77 1.27 224.37 1.1 222.98 0.93 221.46 0.7 219.93 0.46 218.45 0.18 216.98-0.1 215.98-0.32ZM227.23-27.1L227.23-27.1Q226.77-24.22 226.45-21.25 226.13-18.29 225.9-15.49 225.67-12.7 225.5-10.18 225.33-7.67 225.16-5.69L225.16-5.69Q226.13-5.69 227.27-5.8 228.4-5.91 229.53-6.18 230.65-6.45 231.71-6.87 232.77-7.3 233.58-7.93 234.38-8.57 234.87-9.44 235.36-10.3 235.36-11.43L235.36-11.43Q235.36-12.11 234.95-12.63 234.53-13.16 233.88-13.54 233.24-13.92 232.46-14.17 231.67-14.43 230.93-14.59 230.19-14.75 229.56-14.83 228.94-14.92 228.62-14.97L228.62-14.97Q228.28-15.01 228.18-15.21 228.09-15.41 228.09-15.7L228.09-15.7Q228.09-16.02 228.48-16.65 228.87-17.29 229.55-18.38L229.55-18.38 230.58-20.02Q231.24-20.26 232-20.63 232.77-21 233.43-21.47 234.09-21.95 234.53-22.55 234.97-23.14 234.97-23.85L234.97-23.85Q234.97-25.85 234.1-26.92 233.24-27.98 231.6-27.98L231.6-27.98Q229.75-27.98 227.23-27.1Z" opacity="1" transform="matrix(1,0,0,1,0,0)" fill="#000000" class="undefined-text-0" data-fill-palette-color="primary" id="text-0"></path></svg></g></svg></g><g transform="matrix(1,0,0,1,75.54432,80.69200017532121)"><svg viewBox="0 0 244.43135999999998 25.058715096222382" height="25.058715096222382" width="244.43135999999998"><g transform="matrix(1,0,0,1,0,0)"><svg width="244.43135999999998" viewBox="1.149999976158142 -42.29999923706055 420.8600158691406 43.14999771118164" height="25.058715096222382" data-palette-color="#61777f"><path d="M37.05-27.65L41.95-27.65 33.45 0.45 28.4 0.45 21.55-20.75 14.75 0.45 9.7 0.45 1.15-27.65 6.05-27.65 12.25-5.7 18.85-27.65 24.25-27.65 30.9-5.7 37.05-27.65ZM60.65-28.25L61.8-28.25 61.8-23.85 60.65-23.85Q56.35-23.85 52.3-20.4L52.3-20.4 52.3 0 47.6 0 47.6-27.65 52.3-27.65 52.3-24.55Q56.4-28.25 60.65-28.25L60.65-28.25ZM67.8-32.85L67.8-40.4 72.5-40.4 72.5-32.85 67.8-32.85ZM67.8 0L67.8-27.65 72.5-27.65 72.5 0 67.8 0ZM93.54-22.95L87.14-22.95 87.14-7.15Q87.14-5.15 87.77-4.42 88.39-3.7 90.09-3.7L90.09-3.7Q91.59-3.7 93.29-4.1L93.29-4.1 93.29 0.15Q91.04 0.65 89.29 0.65L89.29 0.65Q85.49 0.65 83.97-0.9 82.44-2.45 82.44-6.1L82.44-6.1 82.44-22.95 78.84-22.95 78.84-27.3 82.44-27.3 82.44-36.8 87.14-36.8 87.14-27.3 93.54-27.3 93.54-22.95ZM103.34-13.45Q103.44-8.85 105.64-6.1 107.84-3.35 112.64-3.35L112.64-3.35Q116.29-3.35 120.64-5.4L120.64-5.4 122.09-1.5Q117.54 0.85 112.24 0.85L112.24 0.85Q107.84 0.85 104.74-1 101.64-2.85 100.04-6.15 98.44-9.45 98.44-13.85L98.44-13.85Q98.44-18.5 100.12-21.78 101.79-25.05 104.64-26.75 107.49-28.45 111.04-28.45L111.04-28.45Q116.49-28.45 119.59-25.05 122.69-21.65 122.69-15.3L122.69-15.3 122.69-13.45 103.34-13.45ZM111.04-24.25Q104.84-24.25 103.64-17.4L103.64-17.4 117.74-17.4Q117.49-20.9 115.84-22.58 114.19-24.25 111.04-24.25L111.04-24.25ZM152.09 0.85Q145.64 0.8 142.16-3.15 138.69-7.1 138.69-13.85L138.69-13.85Q138.69-20.6 142.16-24.5 145.64-28.4 152.09-28.45L152.09-28.45Q154.34-28.45 155.96-28.13 157.59-27.8 159.44-27.05L159.44-27.05 159.44-22.5Q157.64-23.35 156.01-23.7 154.39-24.05 152.44-24.05L152.44-24.05Q147.79-24 145.69-21.28 143.59-18.55 143.59-13.9L143.59-13.9Q143.59-9.15 145.69-6.35 147.79-3.55 152.34-3.5L152.34-3.5Q155.89-3.5 160.09-5.65L160.09-5.65 161.59-1.55Q157.04 0.85 152.09 0.85L152.09 0.85ZM179.63 0.85Q175.23 0.85 172.16-1.07 169.08-3 167.53-6.33 165.98-9.65 165.98-13.8L165.98-13.8Q165.98-17.95 167.53-21.28 169.08-24.6 172.16-26.53 175.23-28.45 179.63-28.45L179.63-28.45Q184.03-28.45 187.11-26.53 190.18-24.6 191.71-21.28 193.23-17.95 193.23-13.8L193.23-13.8Q193.23-9.65 191.71-6.33 190.18-3 187.11-1.07 184.03 0.85 179.63 0.85L179.63 0.85ZM179.63-3.4Q183.78-3.4 186.06-6.3 188.33-9.2 188.33-13.8L188.33-13.8Q188.33-18.4 186.06-21.28 183.78-24.15 179.63-24.15L179.63-24.15Q175.48-24.15 173.18-21.28 170.88-18.4 170.88-13.8L170.88-13.8Q170.88-9.2 173.18-6.3 175.48-3.4 179.63-3.4L179.63-3.4ZM219.13-42.3L223.83-42.3 223.83 0 219.13 0 219.13-2.5Q215.18 0.85 211.13 0.85L211.13 0.85Q205.53 0.85 202.18-2.9 198.83-6.65 198.83-13.8L198.83-13.8Q198.83-20.95 202.18-24.7 205.53-28.45 211.13-28.45L211.13-28.45Q215.13-28.45 219.13-25.05L219.13-25.05 219.13-42.3ZM211.73-3.5Q215.33-3.5 219.13-6.6L219.13-6.6 219.13-20.95Q215.43-24.05 211.73-24.05L211.73-24.05Q207.78-24.05 205.76-21.45 203.73-18.85 203.73-13.8L203.73-13.8Q203.73-8.75 205.76-6.13 207.78-3.5 211.73-3.5L211.73-3.5ZM236.03-13.45Q236.13-8.85 238.33-6.1 240.53-3.35 245.33-3.35L245.33-3.35Q248.98-3.35 253.33-5.4L253.33-5.4 254.78-1.5Q250.23 0.85 244.93 0.85L244.93 0.85Q240.53 0.85 237.43-1 234.33-2.85 232.73-6.15 231.13-9.45 231.13-13.85L231.13-13.85Q231.13-18.5 232.8-21.78 234.48-25.05 237.33-26.75 240.18-28.45 243.73-28.45L243.73-28.45Q249.18-28.45 252.28-25.05 255.38-21.65 255.38-15.3L255.38-15.3 255.38-13.45 236.03-13.45ZM243.73-24.25Q237.53-24.25 236.33-17.4L236.33-17.4 250.43-17.4Q250.18-20.9 248.53-22.58 246.88-24.25 243.73-24.25L243.73-24.25ZM285.02 0.85Q280.62 0.85 277.55-1.07 274.47-3 272.92-6.33 271.37-9.65 271.37-13.8L271.37-13.8Q271.37-17.95 272.92-21.28 274.47-24.6 277.55-26.53 280.62-28.45 285.02-28.45L285.02-28.45Q289.42-28.45 292.5-26.53 295.57-24.6 297.1-21.28 298.62-17.95 298.62-13.8L298.62-13.8Q298.62-9.65 297.1-6.33 295.57-3 292.5-1.07 289.42 0.85 285.02 0.85L285.02 0.85ZM285.02-3.4Q289.17-3.4 291.45-6.3 293.72-9.2 293.72-13.8L293.72-13.8Q293.72-18.4 291.45-21.28 289.17-24.15 285.02-24.15L285.02-24.15Q280.87-24.15 278.57-21.28 276.27-18.4 276.27-13.8L276.27-13.8Q276.27-9.2 278.57-6.3 280.87-3.4 285.02-3.4L285.02-3.4ZM319.07-28.25Q324.17-28.25 326.65-25.55 329.12-22.85 329.12-16.65L329.12-16.65 329.12 0 324.42 0 324.42-16.65Q324.42-20.55 323.1-22.2 321.77-23.85 318.42-23.85L318.42-23.85Q314.52-23.85 310.62-20.45L310.62-20.45 310.62 0 305.92 0 305.92-27.65 310.62-27.65 310.62-24.7Q314.72-28.25 319.07-28.25L319.07-28.25ZM344.92 0.65Q341.17 0.65 339.52-0.85 337.87-2.35 337.87-5.9L337.87-5.9 337.87-42.3 342.57-42.3 342.57-7.15Q342.57-5.15 343.19-4.42 343.82-3.7 345.57-3.7L345.57-3.7Q346.97-3.7 348.07-4L348.07-4 348.07 0.3Q346.07 0.65 344.92 0.65L344.92 0.65ZM353.82-32.85L353.82-40.4 358.52-40.4 358.52-32.85 353.82-32.85ZM353.82 0L353.82-27.65 358.52-27.65 358.52 0 353.82 0ZM380.66-28.25Q385.76-28.25 388.24-25.55 390.71-22.85 390.71-16.65L390.71-16.65 390.71 0 386.01 0 386.01-16.65Q386.01-20.55 384.69-22.2 383.36-23.85 380.01-23.85L380.01-23.85Q376.11-23.85 372.21-20.45L372.21-20.45 372.21 0 367.51 0 367.51-27.65 372.21-27.65 372.21-24.7Q376.31-28.25 380.66-28.25L380.66-28.25ZM402.66-13.45Q402.76-8.85 404.96-6.1 407.16-3.35 411.96-3.35L411.96-3.35Q415.61-3.35 419.96-5.4L419.96-5.4 421.41-1.5Q416.86 0.85 411.56 0.85L411.56 0.85Q407.16 0.85 404.06-1 400.96-2.85 399.36-6.15 397.76-9.45 397.76-13.85L397.76-13.85Q397.76-18.5 399.44-21.78 401.11-25.05 403.96-26.75 406.81-28.45 410.36-28.45L410.36-28.45Q415.81-28.45 418.91-25.05 422.01-21.65 422.01-15.3L422.01-15.3 422.01-13.45 402.66-13.45ZM410.36-24.25Q404.16-24.25 402.96-17.4L402.96-17.4 417.06-17.4Q416.81-20.9 415.16-22.58 413.51-24.25 410.36-24.25L410.36-24.25Z" opacity="1" transform="matrix(1,0,0,1,0,0)" fill="#61777f" class="undefined-text-1" data-fill-palette-color="secondary" id="text-1"></path></svg></g></svg></g></svg></g></svg></g><g></g></svg></g><defs></defs></svg><rect width="395.52" height="105.75071527154358" fill="none" stroke="none" visibility="hidden"></rect></g></svg></g></svg>